<svg xmlns="http://www.w3.org/2000/svg" width="269.184" height="142.403"><defs><clipPath id="a"><path d="M92.647 502.285h88.29v-62.176h-88.29v62.176z"/></clipPath><clipPath id="b"><path d="M117.841 494.733h45.899v-45.859h-45.899v45.859z"/></clipPath><clipPath id="c"><path d="M37.042 512.543h212.402v-61.818H37.043v61.818z"/></clipPath><clipPath id="d"><path d="M36.159 474.999h199.38v-73.818H36.159v73.818z"/></clipPath></defs><path d="M29.51 473.728c2.28 0 4.442.54 5.522 1.621.18 1.68-1.32 4.38-2.28 4.38-1.14-.42-2.221-.66-3.541-.66-5.46 0-8.16 5.64-8.16 11.222 0 3.478 1.198 5.58 3.96 5.58 2.94 0 5.94-1.98 7.62-3.48.42.3.96 1.26.96 2.34 0 1.2-.36 2.34-1.44 3.42-1.92 1.92-5.16 3.54-9.84 3.54-5.4 0-9.122-3.06-9.122-10.202 0-9.36 6.182-17.76 16.263-17.76h.059zm17.64 21.843c2.94 0 8.28-5.16 9.78-15.002.06-.6.12-.779.24-1.379a7.528 7.528 0 0 0-2.46-.42c-2.22 0-4.5.659-6.54 3.42-2.1 2.939-3 6.599-3 9.541 0 2.52.72 3.84 1.92 3.84h.06zm-9.662-2.7c0-3.54 1.2-9.722 5.702-14.22 3.84-3.96 8.52-4.923 12.78-4.923 2.82 0 6.66.9 9.06 1.382-.6 2.639-2.04 12.6-2.7 18.359-.3 2.461-.42 5.881-.3 7.141-1.98.84-5.7 1.081-6.72 1.081-.54 0-.66-2.46-.48-4.8.06-.78.18-1.92.24-2.4-2.34 3.9-6.96 7.2-11.82 7.2-3.48 0-5.762-2.88-5.762-8.76v-.06zm42.482-19.143c2.46 0 4.8.901 5.88 2.041-.06 1.68-1.38 4.5-3.48 3.72-.9-.3-1.8-.538-3-.538-1.62 0-3 .72-3 2.218 0 1.14.84 1.98 4.86 4.8 2.88 2.1 4.02 3.96 4.02 6.602 0 4.38-4.14 9.12-11.34 9.12-2.94 0-5.522-1.14-6.362-2.34-1.08-1.8-.24-5.34.961-4.742 1.56.782 4.14 1.622 6.24 1.622 1.98 0 3.24-.902 3.24-2.1 0-1.02-.9-1.922-4.56-4.502-3.06-2.278-4.02-4.38-4.02-6.78 0-4.98 4.26-9.12 10.5-9.12h.06zm20.698 0c2.461 0 4.802.901 5.881 2.041-.059 1.68-1.379 4.5-3.479 3.72-.901-.3-1.802-.538-3.001-.538-1.62 0-3 .72-3 2.218 0 1.14.84 1.98 4.861 4.8 2.879 2.1 4.019 3.96 4.019 6.602 0 4.38-4.141 9.12-11.341 9.12-2.939 0-5.52-1.14-6.36-2.34-1.08-1.8-.24-5.34.96-4.742 1.56.782 4.141 1.622 6.24 1.622 1.98 0 3.24-.902 3.24-2.1 0-1.02-.899-1.922-4.559-4.502-3.061-2.278-4.02-4.38-4.02-6.78 0-4.98 4.26-9.12 10.5-9.12h.059zm18.899 21.843c2.942 0 8.28-5.16 9.782-15.002.059-.6.12-.779.24-1.379-.66-.24-1.56-.42-2.461-.42-2.22 0-4.5.659-6.541 3.42-2.1 2.939-3 6.599-3 9.541 0 2.52.72 3.84 1.92 3.84h.06zm-9.662-2.7c0-3.54 1.202-9.722 5.702-14.22 3.84-3.96 8.52-4.923 12.78-4.923 2.822 0 6.663.9 9.063 1.382-.6 2.639-2.04 12.6-2.7 18.359-.3 2.461-.42 5.881-.3 7.141-1.98.84-5.7 1.081-6.722 1.081-.539 0-.659-2.46-.48-4.8.06-.78.18-1.92.241-2.4-2.341 3.9-6.96 7.2-11.821 7.2-3.481 0-5.763-2.88-5.763-8.76v-.06zm41.102-11.343c2.761-4.438 6.36-7.8 11.401-7.8 4.26 0 5.64 3.96 4.862 9.602-.42 2.64-1.14 6.42-1.622 9.9-.42 2.942-.72 5.58-.658 7.38-1.56.782-6.122 1.082-7.142 1.082-.42 0-.48-3.301.06-6.782.48-2.88 1.5-8.1 1.98-11.102.302-1.737.24-3.84-1.44-3.84-2.22 0-7.5 3.543-10.14 18.062-.182 1.2-.66 1.92-1.322 2.34-.899.54-2.82 1.022-6.719 1.08.72-3.66 1.86-11.16 2.7-16.68.779-5.04 1.08-8.28.899-9.54 1.021-.362 6.362-1.502 6.96-1.502.662 0 .781 1.86.181 6.363-.059.42-.12 1.079-.181 1.437h.181zm30.481 13.982c2.639 0 7.981-4.92 9.48-13.62.061-.48.241-1.38.361-1.922-.781-.72-1.801-1.199-3.42-1.199-6.062 0-8.762 7.261-8.762 12.481 0 2.82.961 4.26 2.28 4.26h.061zm-3.96 6.182c-3.84 0-6.24-3.42-6.24-9.302 0-9.72 6.059-18.662 16.26-18.662 1.801 0 3.42.481 4.44 1.081.54-2.761 1.8-11.281 1.861-13.801 1.679-.3 5.28-.839 6.899-.839.663 0 .843.659.601 2.158-1.441 9-4.019 26.283-4.5 30.125-.361 3.24-.42 6.42-.361 8.22-1.919.84-5.82 1.02-6.839 1.02-.422 0-.661-2.762-.541-5.222.061-.778.18-1.92.18-2.1-3 4.922-7.141 7.322-11.701 7.322h-.059zm35.159-19.322c3.181-7.082 6.96-8.642 9.421-8.642.781 0 1.98.482 2.52 1.082.241 1.98-1.319 5.94-2.7 7.438-.721-.358-1.619-.72-2.64-.72-2.041 0-6.061 3.182-8.581 16.863-.182 1.141-.54 1.621-1.199 1.92-1.02.6-5.041 1.081-6.96 1.14.897-4.92 2.457-14.941 3.059-20.821.18-1.502.238-4.26.12-5.342 1.14-.54 5.641-1.56 6.66-1.56.541 0 .961 3.302.118 8.643h.182zm21.179 13.201c2.942 0 8.281-5.16 9.782-15.002.06-.6.12-.779.24-1.379-.66-.24-1.56-.42-2.46-.42-2.22 0-4.5.659-6.542 3.42-2.099 2.939-3 6.599-3 9.541 0 2.52.72 3.84 1.921 3.84h.059zm-9.661-2.7c0-3.54 1.201-9.722 5.701-14.22 3.84-3.96 8.52-4.923 12.781-4.923 2.82 0 6.66.9 9.063 1.382-.602 2.639-2.042 12.6-2.702 18.359-.3 2.461-.42 5.881-.3 7.141-1.98.84-5.7 1.081-6.72 1.081-.54 0-.66-2.46-.48-4.8.06-.78.18-1.92.24-2.4-2.34 3.9-6.96 7.2-11.82 7.2-3.482 0-5.763-2.88-5.763-8.76v-.06z" fill="#fff"/><path d="M215.048 47.832c1.98 23.065-34.32 45.017-81.074 49.028-46.755 4.012-86.261-11.438-88.239-34.502-1.98-23.069 34.319-45.02 81.071-49.031 46.757-4.01 86.264 11.436 88.242 34.505" fill="#bbe6fb"/><g clip-path="url(#a)" opacity=".35" transform="matrix(1.25 0 0 -1.25 -44.35 643.88)"><path d="M138.023 502.278c-14.268.232-30.964-5.433-43.388-10.738a35.911 35.911 0 0 1-1.988-11.797c0-21.888 19.764-39.634 44.145-39.634 24.381 0 44.145 17.746 44.145 39.634 0 6.928-1.984 13.435-5.463 19.1-9.939 1.546-23.609 3.21-37.45 3.435" fill="#fff"/></g><path d="M126.64 16.026c-9.873-.602-26.892 4.55-41.083 9.689a42.162 42.162 0 0 0-3.355 16.499c0 23.973 21.736 43.408 44.729 43.408 22.84 0 43.05-19.466 44.727-43.408.545-7.795-2.139-15.142-5.865-21.474-14.712-2.594-30.326-4.175-39.152-4.714" fill="#fff"/><path d="M101.301 39.067c1.211-2.683 3.048-3.996 4.824-6.245-.197-.533-.63-2.273-.63-2.876a4.884 4.884 0 0 1 4.884-4.883 4.89 4.89 0 0 1 1.799.346c8.08-6.157 18.72-8.842 29.41-6.452a36.8 36.8 0 0 1 2.875.779c-10.567-1.465-22.475 2.276-30.577 8.816.248.584.933 2.252.933 2.924 0 2.696-1.745 3.352-4.44 3.352a4.888 4.888 0 0 1-1.739-.324c-1.831 2.458-4.074 7.14-5.171 10.065 4.48 4.007 8.529 5.46 13.802 7.43-.012-.25.183-.483.183-.74 0-8.127 7.155-14.733 15.285-14.733 7.286 0 13.319 5.297 14.495 12.246 3.635-2.313 7.151-4.085 9.829-7.513-.625-.76-1.3-2.92-1.3-3.982a4.433 4.433 0 0 1 4.432-4.431c.348 0 .679.05 1.004.125a38.818 38.818 0 0 0 3.042-8.812c-12.712-9.41-37.31-8.127-37.31-8.127s-19.572-1.023-32.822 5.435c.884 6.389 3.432 12.464 7.192 17.6" fill="#373535"/><path d="M162.063 35.4c.899.81 1.389 1.521 1.775 2.214 1.189 2.138-1.196 4.095-3.643 4.095a4.38 4.38 0 0 1-.727-.074c-2.756 4.307-7.584 9.831-11.872 12.61 6.576 1.077 12.777 3.712 17.712 7.782 3.594-6.44 6.35-15.736 6.35-23.633 0-6.012-2.654-10.418-6.66-13.65-.21 3.22-1.929 7.723-2.935 10.656M108.68 76.181c2.192-6.05 7.58-10.74 12.68-14.865-.746-1.021-1.866-3.55-2.332-4.746a35.71 35.71 0 0 1-15.989-10.118c-.031.137-.07.27-.102.405a32.374 32.374 0 0 0-.551 10.73 6.41 6.41 0 0 1 5.23 6.302c0 1.862-1.63 4.56-2.897 5.732 1.378 2.971 2.315 4.404 3.96 6.56" fill="#373535"/><path d="M108.294 81.262c-2.613-2.599-4.422-7.784-6.117-11.038a6.442 6.442 0 0 1-.976.083c-3.545 0-7.257-2.976-6.419-6.418.467-1.905 1.78-3.152 3.922-4.192-.488-3.945-.62-9.617.297-13.722.261-1.17.819-1.722 1.188-2.84-3.912-5.723-6.44-13.236-6.44-20.69 0-.272.013-.54.02-.81-6.61 3.313-11.567 8.538-11.567 16.758 0 18.186 10.474 36.024 26.058 43.016.011-.048.021-.098.034-.147m38.32-25.14c-2.014 5.728-7.459 9.842-13.875 9.842a14.643 14.643 0 0 1-9.084-3.152c-5.159 4.018-9.839 11.074-12.218 17.197 1.068 1.15 1.812 2.095 3.01 3.113 3.608.94 8.578 0 12.484 0 15.713 0 29.629-6.99 37.608-19.248-5.305-3.674-11.563-7.17-17.925-7.752" fill="#373535"/><path d="M100.898 41.193a35.573 35.573 0 0 1 4.507-7.415 4.89 4.89 0 0 1-.313-1.708 4.884 4.884 0 0 1 4.884-4.883c.635 0 1.242.126 1.799.349 8.08-6.16 18.72-8.845 29.41-6.455a36.8 36.8 0 0 1 2.875.779c-10.567-1.465-21.484 1.775-29.585 8.313a4.883 4.883 0 0 1-4.499 6.779 4.834 4.834 0 0 1-1.739-.324 32.785 32.785 0 0 0-4.424 8.1c3.848 4.147 8.57 7.425 13.843 9.398-.013-.251-.039-.501-.039-.758 0-8.127 6.589-14.718 14.719-14.718 7.286 0 13.319 5.297 14.495 12.248 3.635-2.312 6.865-5.283 9.544-8.71a4.373 4.373 0 0 1-1.014-2.787 4.43 4.43 0 0 1 4.431-4.429c.348 0 .679.049 1.004.125a38.837 38.837 0 0 0 3.042-8.814c-12.712-9.41-37.31-8.127-37.31-8.127s-19.572-1.02-32.822 5.437c.884 6.39 3.432 12.462 7.192 17.6" fill="#1287b1"/><path d="M162.749 36.125a4.4 4.4 0 0 1 1.475 3.276 4.433 4.433 0 0 1-4.431 4.431c-.249 0-.489-.033-.728-.073a35.847 35.847 0 0 1-10.699 10.76 35.827 35.827 0 0 1 17.242 7.751 44.49 44.49 0 0 0 5.647-21.753c0-6.01-2.654-10.417-6.66-13.65-.21 3.22-.84 6.325-1.846 9.258m-53.394 41.511a35.698 35.698 0 0 1 11.1-15.605 14.658 14.658 0 0 1-1.83-3.337 35.66 35.66 0 0 1-15.988-10.118c-.032.137-.072.269-.103.405a32.308 32.308 0 0 0-.551 10.73 6.414 6.414 0 0 1 5.231 6.304c0 1.86-.798 3.535-2.065 4.708a38.6 38.6 0 0 0 4.207 6.913" fill="#1287b1"/><path d="M108.276 81.188a35.798 35.798 0 0 1-6.5-8.837 6.47 6.47 0 0 1-.977.08 6.418 6.418 0 0 1-6.419-6.416 6.414 6.414 0 0 1 3.623-5.772 35.516 35.516 0 0 1 .596-12.14 35.87 35.87 0 0 1 .95-3.438 35.49 35.49 0 0 1-6.201-20.095c0-.272.01-.54.018-.81-6.61 3.315-11.567 8.537-11.567 16.757 0 18.186 10.86 33.825 26.444 40.818.01-.049.02-.098.033-.147m37.934-22.941c-2.013 5.727-7.458 9.84-13.874 9.84a14.643 14.643 0 0 1-9.084-3.15c-5.159 4.017-9.052 9.493-11.431 15.617a39.643 39.643 0 0 0 3.406 3.249 44.776 44.776 0 0 0 11.301 1.444c15.713 0 29.527-8.112 37.505-20.37-5.305-3.674-11.46-6.047-17.822-6.63" fill="#1287b1"/><g clip-path="url(#b)" transform="matrix(1.25 0 0 -1.25 -44.35 643.88)"><path d="M152.861 471.541l10.88 2.596-10.92.556 8.886 6.793-10.084-3.615 6.853 9.496-9.465-6.29 3.31 11.116-6.5-9.163-.149 11.58-4.277-10.315-3.566 10.437.193-12.295-6.163 11.022 3.335-11.703-9.996 7.271 7.83-9.84-12.41 4.563 9.794-7.246-12.56-.387 12.842-3.314-12.854-2.778 12.688-.92-10.699-6.85 11.017 3.992-7.644-9.68 9.66 7.79-3.479-12.992 7.457 10.572-1.044-12.486 4.232 11.32 3.603-11.898.876 11.934 5.348-10.182-3.16 11.646 9.793-7.587-6.322 9.672 10.744-4.184-8.215 8.073 11.016-.866-10.85 4.163z" fill="#fff"/></g><g clip-path="url(#c)" opacity=".35" transform="matrix(1.25 0 0 -1.25 -44.35 643.88)"><path d="M37.042 450.725c33.74 33.74 60.688 44.155 85.143 48.91 3.236.63 3.849 7.7 3.849 7.7s.453-5.208 2.717-5.887c2.264-.68 5.207 8.152 5.207 8.152s-2.717-7.926 0-8.379c2.719-.453 7.699 7.7 7.699 7.7s-2.037-7.02-.677-7.473c1.357-.453 8.15 10.19 8.15 10.19s-4.076-7.02-.227-7.7c3.852-.679 9.467 4.791 9.467 4.791s-4.416-5.005-2.447-5.696c8.379-2.945 15.158 7.945 15.158 7.945s-1.57-4.775-5.646-9.983c8.83-2.264 15.388 11.04 15.388 11.04l-6.558-13.304c3.396-1.813 16.984 13.812 16.984 13.812s-7.019-12.228-11.096-14.718c2.264-1.812 10.416 5.434 10.416 5.434s-6.566-8.15-4.076-8.604c3.623-2.944 16.983 15.171 16.983 15.171s-5.207-10.642-12.907-19.02c6.436-3.22 22.418 17.435 22.418 17.435s-.453-6.567-12.002-16.983c8.606 1.132 19.702 17.436 19.702 17.436s-4.077-12.228-13.815-20.832c8.449.88 21.965 21.738 21.965 21.738s-5.207-14.492-15.85-22.87c11.776-2.605 28.758 14.944 28.758 14.944s-6.68-12.455-15.398-17.549c9.738-3.736 23.097 11.662 23.097 11.662s-13.359-20.607-34.644-19.7c-6.985.296-28.11 21.187-73.369 19.473-59.78-2.265-72.459-27.626-104.389-44.835" fill="#373535"/></g><path d="M3.682 77.27C45.857 35.096 79.539 22.077 110.11 16.132c4.045-.786 4.812-9.623 4.812-9.623s.563 6.511 3.396 7.358c2.83.85 6.509-10.188 6.509-10.188s-3.397 9.907 0 10.472c3.398.565 9.623-9.624 9.623-9.624s-2.546 8.774-.848 9.34c1.698.567 10.19-12.737 10.19-12.737s-5.095 8.775-.284 9.624c4.812.85 11.834-5.988 11.834-5.988s-5.52 6.256-3.06 7.12c10.475 3.68 18.946-9.931 18.946-9.931s-1.963 5.969-7.055 12.479c11.037 2.831 19.235-13.8 19.235-13.8l-8.198 16.631C179.455 19.529 196.438 0 196.438 0s-8.771 15.282-13.868 18.396c2.83 2.265 13.02-6.792 13.02-6.792s-8.207 10.19-5.095 10.755c4.53 3.681 21.23-18.964 21.23-18.964s-6.512 13.304-16.135 23.776c8.045 4.025 28.023-21.795 28.023-21.795s-.566 8.21-15.003 21.23C219.368 25.19 233.238 4.81 233.238 4.81s-5.096 15.285-17.269 26.041C226.53 29.752 243.425 3.68 243.425 3.68s-6.508 18.115-19.812 28.587c14.72 3.255 35.947-18.68 35.947-18.68s-8.35 15.566-19.247 21.935c12.172 4.67 28.871-14.577 28.871-14.577s-16.699 25.758-43.307 24.626c-8.73-.373-35.135-26.486-91.71-24.343C59.444 24.057 43.593 55.76 3.683 77.27" fill="#373535"/><g clip-path="url(#d)" opacity=".35" transform="matrix(1.25 0 0 -1.25 -44.35 643.88)"><path d="M36.16 447.036c17.831-8.945 34.136 1.357 54.685-4.434 15.623-4.404 34.644-9.832 60.458-6.095 25.814 3.734 47.892 14.943 58.423 34.984 3.284 8.943 16.643-2.04 16.643-2.04s-9.736 4.077-9.51 2.153c.227-1.925 14.606-8.605 14.606-8.605s-13.022 4.076-12.229 1.019c.793-3.056 16.303-15.285 16.303-15.285s-17.549 13.36-19.02 11.549c-1.472-1.812 7.473-9.172 7.473-9.172s-14.832 9.172-20.04 6.467c-3.747-1.943 15.397-14.506 15.397-14.506s-12.455 9.512-15.398 7.022c-2.943-2.493 14.04-22.871 14.04-22.871s-19.249 20.832-21.173 19.814c-1.926-1.02 5.32-10.984 5.32-10.984s-9.509 10.418-12.113 8.605c-2.603-1.812 13.586-28.871 13.586-28.871s-17.549 27.738-24.795 23.098c11.38-24.965 7.133-28.532 7.133-28.532s-1.45 25.469-15.625 24.795c-7.133-.34 3.397-19.021 3.397-19.021s-9.692 17.062-16.145 16.722c11.895-22.511 7.654-31.667 7.654-31.667s1.967 19.226-14.166 29.925c6.114-5.433-3.836-29.925-3.836-29.925s8.752 36.09-6.455 29.21c-2.402-1.085-.17-18.001-.17-18.001s-3.056 19.36-7.64 18.34c-2.673-.592-16.984-26.831-16.984-26.831s11.72 28.362 8.153 27.172c-2.598-.867-7.473-12.568-7.473-12.568s2.377 11.549 0 12.228c-2.377.68-15.625-12.228-15.625-12.228s9.85 11.549 8.152 13.928c-2.574 3.603-5.59 3.77-9.172 2.376-5.209-2.03-12.226-11.548-12.226-11.548s6.996 9.638 5.773 13.248c-1.963 5.799-22.078-11.21-22.078-11.21s11.89 11.21 9.172 13.587c-2.717 2.377-17.47 1.642-22.078 1.656-13.586.04-18.295 3.228-22.418 6.496" fill="#373535"/></g><path d="M0 82.538c22.29 11.182 42.671-1.698 68.358 5.543 19.528 5.503 43.307 12.29 75.575 7.619 32.267-4.67 59.862-18.681 73.026-43.73 4.105-11.181 20.804 2.546 20.804 2.546s-12.17-5.095-11.888-2.687c.284 2.403 18.258 10.753 18.258 10.753s-16.278-5.092-15.287-1.271c.992 3.82 20.382 19.104 20.382 19.104s-21.94-16.7-23.778-14.434c-1.837 2.263 9.341 11.463 9.341 11.463s-18.54-11.463-25.051-8.084c-4.683 2.429 19.247 18.132 19.247 18.132s-15.568-11.89-19.247-8.775c-3.679 3.114 17.551 28.589 17.551 28.589s-24.062-26.042-26.467-24.767c-2.405 1.275 6.652 13.727 6.652 13.727s-11.888-13.02-15.143-10.756c-3.254 2.265 16.982 36.089 16.982 36.089s-21.936-34.673-30.994-28.87c14.224 31.206 8.916 35.665 8.916 35.665s-1.813-31.84-19.53-30.994c-8.917.425 4.245 23.774 4.245 23.774s-12.115-21.328-20.18-20.903c14.87 28.139 9.567 39.585 9.567 39.585s2.458-24.034-17.708-37.407c7.643 6.79-4.795 37.407-4.795 37.407s10.943-45.115-8.066-36.514c-3.003 1.359-.213 22.503-.213 22.503s-3.822-24.2-9.55-22.928c-3.343.742-21.232 33.543-21.232 33.543s14.649-35.453 10.191-33.965c-3.247 1.081-9.341 15.707-9.341 15.707s2.971-14.436 0-15.285c-2.971-.847-19.531 15.285-19.531 15.285s12.315-14.436 10.19-17.407c-3.218-4.504-6.989-4.714-11.463-2.97-6.514 2.536-15.285 14.432-15.285 14.432s8.745-12.047 7.216-16.557c-2.452-7.25-27.595 14.01-27.595 14.01S59.017 95.7 55.62 92.729c-3.396-2.974-21.839-2.053-27.598-2.07C11.04 90.605 5.156 86.62 0 82.539" fill="#373535"/></svg>