<svg xmlns="http://www.w3.org/2000/svg" viewBox="0 0 367.16406 417.44852" height="417.449" width="367.164"><path d="M183.58 0c-3.6 0-7.202.9-10.322 2.701l.002.002L10.32 96.777l-.002-.002C4.08 100.378.001 107.446 0 114.65h.002v188.147L0 302.795C0 310 4.08 317.07 10.32 320.674l162.94 94.074c6.24 3.602 14.402 3.6 20.642-.002l162.938-94.074.002.002c3.12-1.802 5.7-4.469 7.5-7.586 1.8-3.118 2.82-6.685 2.82-10.287l-.002-.002V114.652h.002c0-3.602-1.02-7.17-2.82-10.289-1.8-3.118-4.38-5.788-7.5-7.59L193.902 2.701C190.782.9 187.181 0 183.58 0zm0 84.121c68.457 0 124.604 56.146 124.604 124.604 0 68.457-56.147 124.603-124.604 124.603S58.977 277.182 58.977 208.725c0-68.458 56.146-124.604 124.603-124.604zm0 60.701c-35.652 0-63.902 28.25-63.902 63.903 0 35.652 28.25 63.902 63.902 63.902s63.902-28.25 63.902-63.902-28.25-63.903-63.902-63.903zm146.063 44.475h13.445v13.418h13.445V217l-13.326.133v13.578h-13.445v-13.844l-13.565-.135v-14.017h13.446v-13.418z" fill="#659ad2"/><path d="M364.3 104.291l-72.966 42.127c10.701 18.365 16.85 39.66 16.85 62.307 0 68.457-56.147 124.603-124.604 124.603-45.87 0-86.207-25.21-107.836-62.44l-72.96 42.126c1.801 3.148 4.393 5.845 7.536 7.66l162.94 94.072c6.24 3.603 14.404 3.603 20.644 0l-.002-.002 162.94-94.072h.002c3.119-1.802 5.698-4.469 7.498-7.586 1.8-3.118 2.82-6.685 2.82-10.287h-.002l.002-188.149.002.002c0-3.602-1.02-7.172-2.82-10.29-.014-.024-.03-.047-.043-.071zm-125.296 72.34l-110.926 64.043c10.947 19.186 31.545 31.953 55.502 31.953 35.652 0 63.902-28.25 63.902-63.902 0-11.755-3.084-22.696-8.478-32.094zm90.639 12.666h13.445v13.418h13.445V217l-13.326.133v13.578h-13.445v-13.844l-13.565-.135v-14.017h13.446v-13.418z" fill="#004482"/><path d="M364.344 104.361l-39.176 22.618-141.586 81.744 141.586 81.746 39.174 22.617c1.8-3.118 2.82-6.685 2.82-10.287h-.002l.002-188.149.002.002c0-3.602-1.02-7.172-2.82-10.29zm-84.938 84.936h13.446v13.418h13.443V217l-13.324.133v13.578h-13.446v-13.844l-13.564-.135v-14.017h13.445v-13.418zm50.237 0h13.445v13.418h13.445V217l-13.326.133v13.578h-13.445v-13.844l-13.565-.135v-14.017h13.446v-13.418z" fill="#00599c"/></svg>