<svg xmlns="http://www.w3.org/2000/svg" viewBox="0 0 297.45001 337.341" height="337.341" width="297.45"><title>Slice 1</title><path d="M27.071 303.62L0 0h297.45l-27.096 303.571-121.811 33.77L27.071 303.62zm0 0" fill="#1572b6" fill-rule="evenodd"/><path d="M148.727 311.529l98.427-27.288 23.157-259.415H148.727v286.703zm0 0" fill="#33a9dc" fill-rule="evenodd"/><g fill="none" fill-rule="evenodd"><path d="M148.726 134.826h49.275l3.403-38.132h-52.678V59.455h93.375l-.893 9.991-9.152 102.616h-83.33v-37.236zm0 0" fill="#fff"/><path d="M148.949 231.534l-.163.046-41.472-11.199-2.652-29.698H67.283l5.216 58.467 76.278 21.176.172-.048v-38.744zm0 0" fill="#ebebeb"/><path d="M194.836 170.486l-4.484 49.87-41.532 11.21v38.742l76.339-21.158.56-6.29 6.478-72.374h-37.361zm0 0" fill="#fff"/><path d="M148.855 59.455v37.239H58.908l-.747-8.37-1.697-18.878-.89-9.991h93.281zm-.129 75.375v37.238h-40.947l-.746-8.369-1.698-18.878-.89-9.991h44.281zm0 0" fill="#ebebeb"/></g></svg>