<svg xmlns="http://www.w3.org/2000/svg" width="224.036" height="152.152" viewBox="0 0 224.03572 152.15206"><path d="M53.863 138.611h-8.644c-.305-14.59-1.147-28.31-2.525-41.163h-.076l-13.161 41.163h-6.582L9.793 97.448h-.077c-.97 12.343-1.58 26.063-1.834 41.163H0c.51-18.364 1.784-35.579 3.824-51.648h10.714l12.471 37.95h.077l12.548-37.95h10.251c2.245 18.82 3.57 36.04 3.978 51.648m37.491-38.105c-3.52 19.1-8.163 32.98-13.926 41.638-4.49 6.672-9.41 10.008-14.767 10.008-1.428 0-3.189-.43-5.278-1.285v-4.604c1.02.15 2.218.23 3.596.23 2.5 0 4.513-.691 6.045-2.07 1.835-1.68 2.754-3.568 2.754-5.66 0-1.43-.717-4.361-2.143-8.797l-9.487-29.46h8.493l6.808 22.033c1.53 5.003 2.168 8.495 1.913 10.485 3.724-9.946 6.325-20.786 7.806-32.518h8.186" fill="#5d87a1"/><path d="M206.426 138.611h-24.558V86.963h8.264v45.295h16.294v6.353" fill="#f8981d"/><path d="M144.684 128.28c-2.092-3.368-3.14-8.77-3.14-16.22 0-13.005 3.954-19.512 11.86-19.512 4.133 0 7.166 1.556 9.106 4.666 2.09 3.368 3.138 8.724 3.138 16.069 0 13.11-3.955 19.667-11.86 19.667-4.132 0-7.167-1.555-9.104-4.67m30.757 11.576l-9.493-4.681c.845-.693 1.648-1.441 2.374-2.307 4.031-4.738 6.048-11.752 6.048-21.037 0-17.087-6.708-25.635-20.122-25.635-6.58 0-11.708 2.167-15.38 6.507-4.032 4.744-6.046 11.73-6.046 20.964 0 9.079 1.784 15.739 5.355 19.97 3.265 3.823 8.188 5.738 14.77 5.738 2.457 0 4.711-.303 6.76-.908l12.363 7.195 3.371-5.806" fill="#f8981d" fill-rule="evenodd"/><path d="M129.221 124.295c0 4.38-1.61 7.976-4.817 10.79-3.21 2.8-7.524 4.205-12.926 4.205-5.052 0-9.948-1.617-14.69-4.823l2.218-4.436c4.082 2.04 7.775 3.059 11.091 3.059 3.11 0 5.545-.693 7.307-2.06 1.757-1.378 2.81-3.3 2.81-5.736 0-3.067-2.138-5.688-6.062-7.887-3.623-1.988-10.863-6.139-10.863-6.139-3.923-2.861-5.89-5.932-5.89-10.99 0-4.184 1.467-7.566 4.397-10.139 2.936-2.578 6.724-3.867 11.362-3.867 4.795 0 9.155 1.28 13.082 3.83l-1.995 4.432c-3.36-1.425-6.673-2.14-9.94-2.14-2.65 0-4.693.637-6.117 1.917-1.432 1.27-2.318 2.903-2.318 4.893 0 3.059 2.186 5.712 6.22 7.954 3.668 1.989 11.086 6.22 11.086 6.22 4.034 2.856 6.045 5.901 6.045 10.917" fill="#f8981d"/><path d="M216.797 69.662c-4.995-.124-8.863.374-12.107 1.748-.936.374-2.432.374-2.56 1.56.503.498.563 1.309 1.003 1.998.747 1.248 2.055 2.93 3.243 3.806 1.31 1 2.621 1.994 3.996 2.868 2.432 1.504 5.178 2.374 7.546 3.872 1.378.872 2.746 1.995 4.123 2.933.684.5 1.117 1.312 1.995 1.62v-.188c-.44-.56-.563-1.372-.998-2-.622-.619-1.248-1.184-1.873-1.805-1.81-2.433-4.06-4.553-6.488-6.3-1.999-1.377-6.37-3.25-7.177-5.552l-.127-.127c1.373-.127 2.999-.627 4.308-1.005 2.119-.56 4.053-.434 6.237-.994 1-.251 2-.565 3.002-.872v-.566c-1.13-1.12-1.938-2.62-3.123-3.68-3.18-2.745-6.679-5.426-10.297-7.676-1.938-1.249-4.434-2.056-6.494-3.12-.745-.375-1.992-.56-2.43-1.187-1.124-1.373-1.75-3.18-2.56-4.805-1.808-3.428-3.559-7.234-5.116-10.859-1.123-2.432-1.81-4.864-3.183-7.112-6.43-10.61-13.417-17.035-24.15-23.339-2.31-1.312-5.055-1.873-7.986-2.56-1.563-.065-3.121-.186-4.681-.248-1-.438-2-1.625-2.872-2.186-3.559-2.246-12.728-7.112-15.35-.686-1.686 4.059 2.495 8.051 3.931 10.111 1.06 1.433 2.435 3.059 3.18 4.679.437 1.061.563 2.186 1.001 3.308.998 2.745 1.932 5.804 3.246 8.364.684 1.31 1.432 2.685 2.305 3.865.504.69 1.375.999 1.563 2.125-.87 1.247-.939 3.119-1.438 4.68-2.245 7.052-1.373 15.789 1.811 20.968.996 1.56 3.37 4.993 6.553 3.68 2.808-1.122 2.184-4.68 2.995-7.798.187-.754.061-1.249.435-1.747v.126c.873 1.745 1.75 3.425 2.56 5.179 1.937 3.054 5.304 6.238 8.114 8.357 1.494 1.128 2.68 3.06 4.552 3.748v-.189h-.122c-.376-.56-.936-.811-1.436-1.246-1.123-1.124-2.368-2.498-3.246-3.745-2.62-3.493-4.932-7.364-6.986-11.358-1.002-1.939-1.874-4.059-2.686-5.992-.373-.745-.373-1.872-.998-2.245-.939 1.371-2.308 2.559-2.994 4.238-1.186 2.687-1.31 5.994-1.75 9.427-.248.066-.123 0-.248.124-1.995-.499-2.682-2.557-3.432-4.3-1.872-4.436-2.187-11.55-.562-16.667.435-1.308 2.312-5.426 1.56-6.674-.377-1.191-1.624-1.871-2.309-2.811-.81-1.185-1.688-2.68-2.244-3.993-1.499-3.494-2.252-7.364-3.87-10.858-.749-1.625-2.062-3.31-3.12-4.805-1.187-1.685-2.497-2.87-3.434-4.865-.31-.688-.747-1.812-.25-2.559.123-.5.377-.688.877-.813.806-.687 3.118.185 3.928.56 2.31.933 4.245 1.812 6.177 3.12.875.625 1.81 1.81 2.932 2.125h1.313c1.996.433 4.244.121 6.118.685 3.305 1.06 6.3 2.62 8.985 4.306 8.172 5.18 14.912 12.545 19.465 21.342.751 1.434 1.066 2.746 1.751 4.24 1.31 3.064 2.935 6.184 4.243 9.177 1.31 2.933 2.56 5.926 4.434 8.363.934 1.309 4.68 1.995 6.364 2.682 1.246.56 3.183 1.06 4.307 1.745 2.121 1.309 4.239 2.809 6.239 4.246.996.75 4.117 2.307 4.305 3.557" fill="#5d87a1" fill-rule="evenodd"/><path d="M153.145 15.431a9.995 9.995 0 0 0-2.559.313v.126h.122c.504.996 1.378 1.688 1.997 2.56.503.998.94 1.993 1.439 2.993.061-.061.121-.127.121-.127.88-.621 1.316-1.618 1.316-3.118-.377-.44-.436-.874-.75-1.312-.374-.623-1.186-.935-1.686-1.435" fill="#5d87a1" fill-rule="evenodd"/><path d="M212.325 138.606h1.37v-5.255h1.791v-1.073h-5.022v1.073h1.861zm10.42 0h1.29v-6.328h-1.94l-1.58 4.313-1.72-4.313h-1.871v6.328h1.221v-4.816h.07l1.8 4.816h.931l1.799-4.816v4.816" fill="#f8981d"/></svg>