<svg xmlns="http://www.w3.org/2000/svg" width="300" height="159"><defs><clipPath id="a"><path d="M297.5 265.601c163.993 0 296.943 69.937 296.943 156.204 0 86.268-132.95 156.204-296.943 156.204S.558 508.072.558 421.805c0-86.267 132.949-156.204 296.942-156.204"/></clipPath><clipPath id="b"><path d="M0 265h595v312H0V265z"/></clipPath><radialGradient fx="0" fy="0" cx="0" cy="0" r="1" gradientUnits="userSpaceOnUse" gradientTransform="scale(389.9253 -389.9253) rotate(33.996 2.424 .08)" id="c"><stop offset="0" stop-color="#4a659b"/><stop offset="1" stop-color="#231f20"/></radialGradient><radialGradient fx="0" fy="0" cx="0" cy="0" r=".5" gradientUnits="userSpaceOnUse" gradientTransform="scale(389.9253 -389.9253) rotate(33.996 2.424 .08)" id="d"><stop offset="0" stop-color="#fff"/><stop offset="1" stop-color="#4a659b"/></radialGradient><clipPath id="e"><path d="M0 265h595v312H0V265z"/></clipPath></defs><g clip-path="url(#a)" transform="matrix(.50515 0 0 -.50515 -.282 293.168)"><g clip-path="url(#b)"><path d="M297.5 265.601c163.993 0 296.943 69.937 296.943 156.204 0 86.268-132.95 156.204-296.943 156.204S.558 508.072.558 421.805c0-86.267 132.949-156.204 296.942-156.204" fill="#231f20"/><path d="M502.098 305.125C381.75 126.677 139.248 79.523-39.202 199.872c-178.448 120.35-225.6 362.851-105.252 541.3 120.349 178.448 362.851 225.601 541.3 105.252 178.448-120.348 225.601-362.85 105.252-541.3" fill="#231f20"/><path d="M0 265h595v312H0V265z" fill="url(#c)"/><path d="M340.46 414.072c-60.174-89.224-181.425-112.8-270.65-52.626-89.224 60.174-112.8 181.425-52.626 270.65 60.175 89.224 181.426 112.8 270.65 52.626 89.224-60.174 112.8-181.426 52.626-270.65" fill="#4a659b"/><path d="M0 265h595v312H0V265z" fill="url(#d)"/></g></g><g clip-path="url(#e)" transform="matrix(.50515 0 0 -.50515 -.282 293.168)"><path d="M297.5 277.2c157.588 0 285.342 64.743 285.342 144.605S455.088 566.41 297.5 566.41c-157.588 0-285.342-64.743-285.342-144.605S139.912 277.2 297.5 277.2" fill="#617cbe"/><path d="M355.3 375.066l14.156 72.846c3.193 16.44.537 28.706-7.894 36.455-8.165 7.499-22.029 11.144-42.381 11.144h-24.512l7.016 36.093a4.639 4.639 0 0 1-4.555 5.525h-33.832a4.638 4.638 0 0 1-4.554-3.755l-15.031-77.335c-1.368 8.702-4.733 16.183-10.124 22.354-9.924 11.36-25.62 17.118-46.656 17.118H121.36a4.638 4.638 0 0 1-4.554-3.755L86.38 335.22a4.64 4.64 0 0 1 4.554-5.525h34.1a4.64 4.64 0 0 1 4.555 3.754l7.359 37.864h25.383c13.322 0 24.509 1.443 33.248 4.288 8.933 2.905 17.154 7.832 24.401 14.615 5.855 5.381 10.694 11.403 14.418 17.902l-6.08-31.28a4.642 4.642 0 0 1 4.555-5.525h33.831a4.641 4.641 0 0 1 4.555 3.753l16.697 85.926h23.214c9.893 0 12.788-1.97 13.574-2.817.717-.772 2.204-3.495.537-12.077l-13.459-69.26a4.642 4.642 0 0 1 4.555-5.525h34.368a4.64 4.64 0 0 1 4.555 3.753zm-156.845 60.189c-2.124-10.92-6.13-18.71-11.902-23.154-5.866-4.516-15.249-6.807-27.889-6.807h-15.112l10.929 56.235h19.538c14.357 0 20.139-3.068 22.461-5.641 3.219-3.57 3.902-10.705 1.975-20.633m301.521 43.138c-9.923 11.36-25.62 17.118-46.655 17.118h-65.573a4.639 4.639 0 0 1-4.555-3.755L352.768 335.22a4.64 4.64 0 0 1 4.555-5.525h34.1a4.637 4.637 0 0 1 4.553 3.754l7.36 37.864h25.383c13.322 0 24.509 1.443 33.248 4.288 8.934 2.905 17.154 7.832 24.403 14.615 6.043 5.556 11.019 11.792 14.788 18.534 3.762 6.734 6.467 14.251 8.039 22.342 3.878 19.943.775 35.858-9.22 47.301zm-35.365-43.138c-2.125-10.92-6.13-18.71-11.902-23.154-5.866-4.516-15.25-6.807-27.888-6.807h-15.114l10.929 56.235h19.54c14.355 0 20.138-3.068 22.46-5.641 3.219-3.57 3.902-10.705 1.975-20.633" fill="#fff"/><path d="M174.02 466.17c12.955 0 21.589-2.392 25.905-7.175 4.314-4.783 5.341-12.993 3.085-24.626-2.359-12.116-6.897-20.764-13.627-25.945-6.73-5.181-16.97-7.77-30.719-7.77h-20.741l12.732 65.515h23.364zM90.934 334.334h34.1l8.088 41.618h29.209c12.888 0 23.49 1.35 31.813 4.061 8.324 2.705 15.888 7.246 22.696 13.619 5.715 5.25 10.337 11.045 13.878 17.38 3.537 6.33 6.05 13.32 7.536 20.964 3.607 18.557.885 33.01-8.16 43.363-9.046 10.354-23.436 15.531-43.162 15.531H121.36L90.935 334.335m172.363 198.154h33.832l-8.089-41.618h30.14c18.963 0 32.044-3.31 39.243-9.921 7.2-6.616 9.356-17.336 6.478-32.154l-14.156-72.843h-34.368l13.458 69.26c1.532 7.879.97 13.253-1.69 16.119-2.66 2.865-8.32 4.3-16.975 4.3h-27.038l-17.428-89.68h-33.831l30.424 156.537m176.877-66.319c12.955 0 21.589-2.392 25.907-7.175 4.313-4.783 5.34-12.993 3.083-24.626-2.357-12.116-6.896-20.764-13.627-25.945-6.729-5.181-16.97-7.77-30.717-7.77H404.08l12.733 65.515h23.363zm-83.084-131.835h34.1l8.088 41.618h29.208c12.888 0 23.49 1.35 31.813 4.061 8.324 2.705 15.888 7.246 22.697 13.619 5.714 5.25 10.338 11.045 13.879 17.38 3.536 6.33 6.05 13.32 7.534 20.964 3.608 18.557.886 33.01-8.16 43.363-9.045 10.354-23.434 15.531-43.162 15.531h-65.573L357.09 334.335" fill="#08090d"/></g></svg>