<svg xmlns="http://www.w3.org/2000/svg" width="273.42" height="97.465" viewBox="0 0 273.41998 97.465333"><path d="M28.572 66.356c-3.036-2.135-5.91-2.955-9.607-2.955-3.858 0-5.829 1.396-5.829 3.367 0 2.216 2.053 3.448 5.995 3.53 7.964.246 17.572 1.89 17.654 13.057.08 6.566-4.845 13.629-17.736 13.629-5.994 0-12.153-1.15-19.049-6.899l5.088-8.374c5.01 4.106 9.855 5.008 14.124 5.09 3.45.084 6.16-1.312 6.077-3.446 0-1.891-1.396-3.448-6.897-3.612-7.555-.332-16.996-3.451-16.996-12.975 0-9.197 8.701-13.055 17.49-13.055 6.24 0 11.247 1.558 15.518 5.252l-5.832 7.391m22.743 8.787c0 6.732 4.762 10.674 10.674 10.674 6.652 0 10.756-5.174 10.756-10.265 0-5.828-3.693-11.167-10.756-11.167-5.912 0-10.674 4.024-10.674 10.758zM73.157 54.86h11.084v40.563H73.568l-.657-5.09c-2.711 4.267-8.54 5.91-12.482 5.994-12.15.081-20.937-7.803-20.937-21.185 0-13.466 9.279-21.348 21.267-21.184 5.09 0 9.853 1.968 11.986 5.582l.412-4.68m19.048-.081v40.645h11.824V54.779zm12.644-10.675c0 8.87-13.465 8.87-13.465 0 0-8.867 13.465-8.867 13.465 0m7.307 51.32h11.743V38.028h-11.743zm45.407-29.068c-3.039-2.135-5.912-2.955-9.607-2.955-3.86 0-5.83 1.396-5.83 3.367 0 2.216 2.053 3.448 5.994 3.53 7.963.246 17.57 1.89 17.653 13.057.082 6.566-4.844 13.629-17.736 13.629-5.993 0-12.152-1.15-19.049-6.899l5.09-8.374c5.009 4.106 9.854 5.008 14.123 5.09 3.45.084 6.159-1.312 6.078-3.446 0-1.891-1.396-3.448-6.898-3.612-7.556-.332-16.997-3.451-16.997-12.975 0-9.197 8.703-13.055 17.49-13.055 6.24 0 11.249 1.558 15.52 5.252l-5.831 7.391" fill="#131c1d"/><path d="M185.07 97.465S147.813 38.177 224.46 0v97.465h-39.39m51.255 0v-60.41s12.234 19.964 37.095 60.41h-37.095" fill="#44b0c3"/></svg>