<svg xmlns="http://www.w3.org/2000/svg" width="144" height="105.04" viewBox="0 0 135.00005 98.474718"><path d="M0 98.364c0-.061.076-.128.169-.149.093-.02 3.122-.528 6.731-1.128 8.519-1.417 19.071-3.505 31.988-6.328 7.59-1.66 10.31-2.294 18.187-4.237 15.954-3.936 26.915-6.824 36.375-9.585 15.51-4.526 26.782-8.29 41.456-13.843.075-.028.094 3.537.094 17.673v17.708H67.5c-59.564 0-67.5-.013-67.5-.111zm0-23.025c0-7.942.008-14.44.019-14.44l6.881-.485c8.433-.595 20.012-1.654 36.075-3.298 18.883-1.932 23.93-2.426 29.963-2.933 15.87-1.333 24.66-1.618 28.912-.937.964.154 2.486.534 3.413.852 1 .344 2.088 1.18 2.457 1.89.2.385.233.53.235 1.012.003 1.406-1.136 2.924-3.442 4.588-1.025.74-3.11 2.009-4.2 2.556-5.442 2.732-9.324 4.318-16.575 6.77-9.118 3.082-20.951 6.4-33.713 9.45-5.889 1.407-8.19 1.917-14.362 3.18-9.917 2.028-20.076 3.85-28.913 5.187a845.23 845.23 0 0 0-6.581 1.008L0 89.778v-14.44zm6.595 4.531c.53-.384.673-1.002.376-1.617-.21-.432-.574-.639-1.209-.686l-.5-.037-.369.37c-.28.28-.38.442-.418.676-.094.59.071.983.566 1.348.194.143.331.176.737.176.438 0 .538-.028.817-.23zm4.556.013c.54-.39.691-1.018.395-1.63-.203-.418-.575-.636-1.167-.685-.403-.033-.493-.014-.74.154-.424.288-.589.607-.59 1.148-.002.502.115.72.567 1.054.194.143.331.176.737.176.432 0 .54-.03.798-.217zm-4.587-8.452c.302-.23.561-.73.561-1.081 0-.352-.26-.851-.561-1.082-.218-.166-.33-.193-.788-.193h-.533l-.36.359c-.59.59-.594 1.222-.01 1.828l.35.363h.543c.47 0 .579-.027.798-.194zm4.548.01c.313-.213.588-.723.588-1.091 0-.351-.26-.851-.561-1.081-.214-.163-.332-.194-.75-.194-.402 0-.548.035-.764.181-.405.275-.58.608-.576 1.094.004.477.173.808.556 1.09.359.266 1.117.266 1.507 0zm29.8-29.218c-1.137-.133-1.935-.291-3.3-.653-1.258-.333-2.203-.983-2.7-1.855-.178-.312-.212-.457-.211-.9 0-.46.037-.599.285-1.088.706-1.398 2.348-2.743 5.814-4.765 2.801-1.634 8.54-4.173 13.65-6.039 8.851-3.232 16.868-5.74 27.15-8.496 14.177-3.799 30.774-7.229 47.813-9.88 2.887-.45 5.325-.83 5.418-.847l.169-.03v27.042l-.544.04c-16.139 1.18-22.31 1.734-43.593 3.914-17.826 1.825-33.488 3.23-39.3 3.523-4.517.229-8.878.243-10.65.034zM0 17.775V0l65.119.009c35.815.005 65.068.022 65.006.037-.062.016-2.205.415-4.762.886-11.422 2.104-29.47 6.06-44.288 9.706-26.267 6.465-45.266 11.938-63.637 18.333-4.92 1.713-10.9 3.946-14.689 5.486A191.52 191.52 0 0 1 .031 35.55C.014 35.55 0 27.552 0 17.775z" fill="#7f9bc7"/></svg>