<svg xmlns="http://www.w3.org/2000/svg" viewBox="0 0 303.05301 84.172997" height="84.173" width="303.053"><path d="M121.256 28.373V83.56h-7.691V28.373H99.943v-6.72h34.934v6.72h-13.621zm41.279 26.44V83.56h-7.966V54.813l-15.825-33.16h8.485l11.668 25.02 11.676-25.02h8.053l-16.091 33.16zm39.968 5.397h-7.429v23.35h-7.698V21.653s7.613-.625 14.956-.625c13.438 0 17.331 8.316 17.331 19.195 0 13.44-4.604 19.987-17.16 19.987m.88-32.81c-4.859 0-8.31.531-8.31.531v25.815h8.31c4.956 0 8.409-3.268 8.409-12.907.001-8.847-2.131-13.439-8.409-13.439m44.05 56.773c-14.588 0-18.481-10.61-18.481-32.271 0-20.789 3.894-30.873 18.481-30.873 14.587 0 18.478 10.084 18.478 30.873 0 21.661-3.891 32.271-18.478 32.271m0-56.69c-7.953 0-10.611 5.4-10.611 24.858 0 19.006 2.658 25.383 10.611 25.383 7.953 0 10.61-6.377 10.61-25.383.001-19.458-2.657-24.858-10.61-24.858m40.678 56.69c-4.331 0-10.78-1.321-11.587-1.51v-6.444c2.129.438 7.608 1.349 11.503 1.349 4.501 0 7.428-3.822 7.428-10.64 0-8.039-1.318-12.286-7.601-12.286h-7.256v-6.463h6.362c7.176 0 7.515-7.34 7.515-10.873 0-6.99-2.202-9.823-6.621-9.823-3.89 0-8.323.973-10.879 1.506v-6.454c.967-.179 6.193-1.506 10.696-1.506 9.105 0 14.332 3.892 14.332 17.075 0 6.015-2.132 11.311-6.819 13.002 5.397.354 7.869 6.277 7.869 14.942 0 13.181-5.126 18.125-14.942 18.125"/><path d="M62.872 58.006c-1.247.368-2.242.506-3.547.506-10.691 0-26.389-37.359-26.389-49.793 0-4.577 1.083-6.104 2.613-7.415C22.465 2.831 6.765 7.633 1.745 13.737.66 15.266 0 17.663 0 20.717c0 19.41 20.718 63.455 35.332 63.455 6.763.001 18.162-11.113 27.54-26.166M56.048 0c13.52 0 27.049 2.18 27.049 9.812 0 15.483-9.819 34.246-14.832 34.246-8.942 0-20.065-24.867-20.065-37.301C48.201 1.087 50.381 0 56.048 0" fill="#ff8700"/></svg>